<svg width="263" height="71" viewBox="0 0 263 71" fill="none" xmlns="http://www.w3.org/2000/svg">
<path d="M10.0162 40.7564C10.1897 41.2646 10.2999 41.5385 10.3468 41.5781C10.3973 41.661 10.4461 41.7222 10.493 41.7618C10.7056 41.7003 11.0668 41.463 11.5765 41.0497C12.0863 40.6365 12.6572 40.1745 13.2894 39.6638C13.9217 39.1531 14.5548 38.6532 15.1888 38.1642C15.8229 37.6751 16.3687 37.3024 16.8263 37.046C17.1796 37.1034 17.3689 37.1528 17.3942 37.1942C17.4195 37.2357 17.3925 37.3033 17.3133 37.3971C15.0512 39.5045 12.9841 41.8569 11.1119 44.4543C11.8 47.9687 12.3649 50.7964 12.8067 52.9375C13.2484 55.0785 13.6024 56.824 13.8686 58.1739C14.1348 59.5238 14.3142 60.6196 14.4069 61.4613C14.4996 62.303 14.5409 63.1817 14.5309 64.0975C14.5282 65.0997 14.4344 65.9245 14.2493 66.5717C14.0642 67.219 13.8151 67.7519 13.5018 68.1704C13.1885 68.5889 12.8365 68.9344 12.4456 69.2069C12.0547 69.4795 11.6719 69.7187 11.2971 69.9245C10.4106 70.2606 9.59874 70.4488 8.86155 70.4891C8.12437 70.5294 7.45468 70.466 6.85249 70.2989C6.25031 70.1318 5.70663 69.8835 5.22146 69.5541C4.73629 69.2247 4.30246 68.8582 3.91996 68.4548C3.49421 68.055 3.07824 67.5128 2.67206 66.8282C2.26588 66.1436 1.94427 65.2994 1.70723 64.2956C1.4702 63.2917 1.36008 62.1138 1.37688 60.7619C1.39369 59.41 1.632 57.8433 2.09183 56.062C2.38639 54.9044 2.73059 53.819 3.12442 52.8056C3.51825 51.7922 3.95807 50.8076 4.44388 49.8518C4.92969 48.896 5.49211 47.9446 6.13114 46.9977C6.77018 46.0508 7.48035 45.0434 8.26167 43.9756C8.23252 43.6295 8.05775 42.7185 7.73737 41.2424C7.417 39.7664 7.01704 37.9922 6.5375 35.9196C6.05796 33.8471 5.52059 31.6052 4.92539 29.1939C4.33018 26.7826 3.74227 24.4578 3.16164 22.2195C2.58101 19.9812 2.03932 17.9466 1.53657 16.1157C1.03382 14.2847 0.636041 12.9241 0.343231 12.0339C0.469357 11.9797 0.600831 11.8597 0.737653 11.6739C0.874475 11.4881 1.0113 11.3024 1.14812 11.1166C1.28494 10.9308 1.43349 10.7549 1.59376 10.5889C1.75403 10.4229 1.94413 10.3525 2.16406 10.3775C2.27561 10.1503 2.48587 10.4484 2.79484 11.2719C3.10382 12.0954 3.47621 13.2839 3.91201 14.8373C4.34782 16.3907 4.81813 18.2244 5.32294 20.3384C5.82775 22.4523 6.35248 24.6735 6.89714 27.002C7.4418 29.3304 7.97747 31.6814 8.50414 34.0549C9.03082 36.4284 9.53484 38.6623 10.0162 40.7564ZM3.87268 64.0151C4.25201 64.898 4.63747 65.5953 5.02908 66.1069C5.42068 66.6184 5.8239 67.0092 6.23871 67.2792C6.65353 67.5493 7.0836 67.7417 7.52893 67.8567C7.97425 67.9717 8.39703 68.0776 8.79727 68.1746C8.70712 68.1387 8.8378 68.1385 9.18932 68.1743C9.54084 68.21 9.82109 68.1755 10.0301 68.0708C10.4986 67.9442 10.9049 67.7248 11.2489 67.4126C11.5929 67.1005 11.9017 66.7586 12.1753 66.387C12.5678 65.8748 12.7202 64.9688 12.6325 63.6693C12.5448 62.3697 12.3154 60.8098 11.9442 58.9895C11.5731 57.1692 11.1098 55.1607 10.5545 52.9638C9.99911 50.767 9.47165 48.5134 8.97207 46.2029C8.16207 47.4474 7.38724 48.7216 6.6476 50.0256C5.90795 51.3295 5.28282 52.7 4.77221 54.1371C4.2616 55.5742 3.9115 57.1067 3.72191 58.7346C3.53231 60.3625 3.58257 62.1227 3.87268 64.0151ZM21.6701 35.5924C21.7962 35.5382 22.1539 35.3883 22.7431 35.1426C23.3323 34.8969 23.827 34.8226 24.2272 34.9195C25.478 34.7706 26.4678 35.014 27.1966 35.6496C27.9254 36.2853 28.0924 37.6217 27.6977 39.659C27.0617 41.9344 26.1243 43.8649 24.8857 45.4505C23.647 47.0361 22.1541 48.5777 20.407 50.0754C20.9343 51.1637 21.636 51.7363 22.5121 51.7932C23.3882 51.85 24.2847 51.6329 25.2017 51.1418C26.1188 50.6507 27.0023 50.0208 27.8524 49.2521C28.7025 48.4835 29.3868 47.8159 29.9054 47.2494C30.7482 46.3943 31.4172 45.6735 31.9124 45.0873C32.4075 44.501 32.9251 43.793 33.4651 42.9633C33.5876 42.8659 33.6642 42.8703 33.6949 42.9766C33.7257 43.083 33.7285 43.2461 33.7035 43.466C33.6785 43.686 33.6391 43.9943 33.5854 44.3909C33.4811 44.7046 33.3741 44.9859 33.2644 45.2348C33.1547 45.4836 32.9927 45.7586 32.7785 46.0599C32.5642 46.3611 32.2789 46.7228 31.9224 47.1449C31.5658 47.567 31.1337 48.1262 30.6261 48.8224C30.0282 49.4827 29.4511 50.1304 28.8947 50.7654C28.3383 51.4004 27.7431 51.9624 27.1091 52.4515C26.475 52.9405 25.7652 53.3053 24.9795 53.5457C24.1938 53.7862 23.2746 53.8636 22.2219 53.778C21.3312 53.5481 20.6118 53.282 20.0636 52.9796C19.5153 52.6773 19.0852 52.3541 18.773 52.0101C18.4609 51.6661 18.2272 51.3482 18.0719 51.0563C17.9166 50.7644 17.8082 50.5121 17.7467 50.2995C17.4576 49.4525 17.2727 48.2919 17.192 46.8174C17.1114 45.343 17.3836 43.4032 18.0087 40.998C18.469 39.7394 18.988 38.661 19.5658 37.7628C20.1436 36.8646 20.845 36.1411 21.6701 35.5924ZM19.7827 47.318C20.3195 46.9678 20.9436 46.4905 21.6551 45.886C22.3665 45.2815 23.0274 44.5941 23.6378 43.8239C24.2481 43.0536 24.7656 42.215 25.1901 41.3079C25.6147 40.4008 25.8085 39.4696 25.7716 38.5143C25.8467 37.8545 25.7868 37.4021 25.5919 37.1571C25.4945 37.0346 25.4025 36.977 25.316 36.9843C24.5515 36.7002 23.8252 36.8703 23.1372 37.4946C22.4493 38.1189 21.8462 38.9757 21.3281 40.0649C20.8099 41.1541 20.3991 42.3541 20.0957 43.6648C19.7923 44.9756 19.6879 46.1933 19.7827 47.318ZM50.5291 16.6936C50.0532 16.7336 49.718 16.7619 49.5233 16.7783C49.3287 16.7947 49.198 16.7948 49.1313 16.7786C49.0646 16.7625 49.0294 16.7328 49.0258 16.6895C49.0221 16.6462 48.995 16.5832 48.9445 16.5003C48.858 16.5076 48.7217 16.3121 48.5357 15.9139C48.3497 15.5157 48.1068 15.0896 47.8072 14.6357C47.5076 14.1817 47.135 13.7665 46.6894 13.3902C46.2439 13.0138 45.7399 12.8494 45.1776 12.8967C43.9409 12.696 42.9597 12.942 42.2339 13.6348C41.5081 14.3277 40.9466 15.2898 40.5494 16.5214C40.1521 17.7529 39.9001 19.1573 39.7934 20.7346C39.6867 22.312 39.6458 23.8947 39.6706 25.4827C39.6955 27.0708 39.769 28.5894 39.8911 30.0385C40.0131 31.4877 40.0908 32.6683 40.1241 33.5804C40.9423 33.4679 41.6209 33.378 42.1598 33.3109C42.6986 33.2437 43.1943 33.1802 43.6466 33.1203C44.099 33.0604 44.519 33.0032 44.9064 32.9488C45.2939 32.8944 45.7256 32.8471 46.2014 32.807C46.4213 32.8321 46.6486 32.9436 46.8831 33.1417C47.1176 33.3398 47.3214 33.5622 47.4947 33.809C47.668 34.0558 47.7962 34.2846 47.8793 34.4954C47.9624 34.7063 47.9607 34.8153 47.8741 34.8226C47.1065 35.018 46.4216 35.1628 45.8197 35.2571C45.2177 35.3513 44.6374 35.4438 44.0787 35.5344C43.52 35.625 42.9496 35.7058 42.3675 35.7766C41.7853 35.8474 41.1284 35.9354 40.3967 36.0406C40.6258 38.2432 40.879 40.215 41.1564 41.956C41.4337 43.697 41.693 45.3525 41.9341 46.9223C42.1753 48.4921 42.4137 50.0295 42.6494 51.5344C42.8851 53.0394 43.0956 54.6335 43.281 56.317C43.2236 56.6703 43.0102 56.8517 42.6407 56.861C42.2712 56.8704 41.89 56.8698 41.497 56.8594C41.3672 56.8703 41.2789 56.856 41.232 56.8163C41.1851 56.7767 41.1363 56.5848 41.0855 56.2405C41.0347 55.8963 40.9639 55.3141 40.873 54.494C40.7821 53.674 40.6405 52.5096 40.4481 51.001C40.2556 49.4925 39.9943 47.554 39.6641 45.1857C39.3339 42.8175 38.8915 39.8923 38.3368 36.4102C37.3491 36.5805 36.5544 36.7128 35.9524 36.8071C35.3505 36.9014 34.8233 36.9785 34.3709 37.0384C33.9185 37.0983 33.4761 37.1464 33.0435 37.1829C32.6109 37.2193 32.0721 37.2865 31.4268 37.3844C31.1241 37.4099 30.9663 37.347 30.9535 37.1956C30.9408 37.0442 30.9784 36.8449 31.0665 36.5979C31.1546 36.3509 31.2653 36.1128 31.3985 35.8838C31.5316 35.6547 31.6162 35.4951 31.6522 35.405C31.9044 35.2966 32.6523 35.1247 33.8958 34.8892C35.1393 34.6538 36.5108 34.3858 38.0102 34.0852C37.4441 29.9506 37.1841 26.4764 37.2302 23.6625C37.2763 20.8487 37.4969 18.5538 37.8918 16.7779C38.2867 15.002 38.7947 13.6631 39.4158 12.7613C40.0368 11.8595 40.6392 11.2533 41.223 10.9427C42.6859 10.2095 44.035 10.0632 45.2701 10.5037C46.5052 10.9443 47.5503 11.5859 48.4055 12.4288C49.2606 13.2716 49.8896 14.1444 50.2923 15.0471C50.6951 15.9498 50.774 16.4987 50.5291 16.6936ZM68.1129 15.2123C67.6371 15.2524 67.3018 15.2806 67.1072 15.297C66.9125 15.3134 66.7819 15.3135 66.7152 15.2973C66.6484 15.2812 66.6133 15.2515 66.6096 15.2082C66.606 15.165 66.5789 15.1019 66.5283 15.019C66.4418 15.0263 66.3056 14.8308 66.1195 14.4326C65.9335 14.0344 65.6907 13.6084 65.3911 13.1544C65.0914 12.7004 64.7189 12.2852 64.2733 11.9089C63.8277 11.5326 63.3238 11.3681 62.7615 11.4155C61.5248 11.2147 60.5435 11.4607 59.8177 12.1535C59.092 12.8464 58.5304 13.8086 58.1332 15.0401C57.736 16.2716 57.484 17.676 57.3773 19.2534C57.2705 20.8307 57.2296 22.4134 57.2545 24.0014C57.2794 25.5895 57.3528 27.1081 57.4749 28.5572C57.597 30.0064 57.6747 31.187 57.7079 32.0991C58.5262 31.9866 59.2047 31.8968 59.7436 31.8296C60.2825 31.7624 60.7781 31.6989 61.2305 31.639C61.6829 31.5791 62.1028 31.5219 62.4903 31.4675C62.8778 31.4131 63.3094 31.3658 63.7853 31.3257C64.0052 31.3508 64.2324 31.4623 64.4669 31.6604C64.7014 31.8585 64.9053 32.0809 65.0786 32.3277C65.2518 32.5745 65.38 32.8033 65.4631 33.0141C65.5462 33.225 65.5445 33.334 65.458 33.3413C64.6903 33.5367 64.0055 33.6815 63.4036 33.7758C62.8016 33.8701 62.2213 33.9625 61.6626 34.0531C61.1039 34.1438 60.5335 34.2245 59.9513 34.2953C59.3692 34.3661 58.7123 34.4542 57.9805 34.5594C58.2096 36.7619 58.4629 38.7337 58.7402 40.4747C59.0176 42.2158 59.2768 43.8712 59.518 45.441C59.7591 47.0108 59.9976 48.5482 60.2332 50.0532C60.4689 51.5581 60.6795 53.1523 60.8648 54.8357C60.8075 55.1891 60.5941 55.3704 60.2246 55.3798C59.855 55.3891 59.4738 55.3885 59.0809 55.3781C58.9511 55.389 58.8628 55.3747 58.8159 55.3351C58.769 55.2954 58.7201 55.1035 58.6693 54.7593C58.6185 54.415 58.5477 53.8329 58.4569 53.0128C58.366 52.1927 58.2243 51.0283 58.0319 49.5198C57.8395 48.0112 57.5782 46.0728 57.248 43.7045C56.9178 41.3362 56.4753 38.411 55.9206 34.9289C54.933 35.0993 54.1382 35.2316 53.5363 35.3258C52.9343 35.4201 52.4071 35.4972 51.9548 35.5571C51.5024 35.617 51.0599 35.6651 50.6274 35.7016C50.1948 35.738 49.6559 35.8052 49.0107 35.9031C48.7079 35.9286 48.5501 35.8657 48.5374 35.7143C48.5246 35.5629 48.5623 35.3637 48.6504 35.1166C48.7385 34.8696 48.8491 34.6316 48.9823 34.4025C49.1155 34.1735 49.2001 34.0139 49.236 33.9237C49.4883 33.8153 50.2362 33.6434 51.4797 33.4079C52.7232 33.1725 54.0946 32.9045 55.5941 32.6039C55.0279 28.4693 54.7679 24.9951 54.8141 22.1812C54.8602 19.3674 55.0807 17.0725 55.4757 15.2966C55.8706 13.5207 56.3786 12.1819 56.9996 11.28C57.6207 10.3782 58.2231 9.77198 58.8068 9.46141C60.2698 8.72825 61.6188 8.58193 62.8539 9.02245C64.089 9.46298 65.1342 10.1047 65.9893 10.9475C66.8445 11.7903 67.4734 12.6631 67.8762 13.5658C68.279 14.4686 68.3579 15.0174 68.1129 15.2123ZM95.2107 4.10753C94.8755 4.26646 94.1674 4.52216 93.0862 4.87463C92.005 5.2271 90.7421 5.87806 89.2973 6.82751C87.8526 7.77696 86.364 9.1113 84.8316 10.8305C83.2993 12.5498 81.9341 14.8321 80.7362 17.6777C80.3442 18.7127 79.9876 20.0388 79.6665 21.656C79.3453 23.2732 79.0763 24.8642 78.8596 26.429C78.643 27.9939 78.4847 29.3468 78.3848 30.488C78.2848 31.6291 78.2781 32.196 78.3647 32.1887C78.3097 35.1558 78.4993 37.5359 78.9335 39.3291C79.3677 41.1222 79.9314 42.5124 80.6244 43.4996C81.3175 44.4868 82.0922 45.1513 82.9487 45.493C83.8052 45.8347 84.6255 46.0052 85.4096 46.0045C86.1937 46.0038 86.893 45.9013 87.5075 45.6971C88.1219 45.4928 88.5157 45.3834 88.6887 45.3688C89.8994 44.7441 91.0415 43.9508 92.1149 42.9891C93.1883 42.0273 94.176 40.953 95.078 39.7661C95.98 38.5792 96.7872 37.3023 97.4998 35.9353C98.2123 34.5683 98.8347 33.1653 99.367 31.7264C99.5218 31.4955 99.7307 31.2601 99.9936 31.0201C100.257 30.7802 100.511 30.5735 100.758 30.4003C101.005 30.227 101.225 30.1214 101.418 30.0833C101.61 30.0453 101.714 30.1128 101.729 30.2858C101.194 32.727 100.349 34.9765 99.1933 37.0342C98.038 39.092 96.7545 40.921 95.3427 42.5211C93.931 44.1213 92.4758 45.4637 90.9771 46.5484C89.4784 47.6331 88.0966 48.4247 86.8317 48.9234C85.0008 49.4261 83.2297 49.2159 81.5183 48.2928C79.8069 47.3696 78.3515 45.4773 77.152 42.6159C76.718 41.0841 76.3442 39.362 76.0307 37.4498C75.7171 35.5376 75.6316 33.617 75.774 31.6881C75.7238 27.9893 76.1082 24.537 76.9273 21.3313C77.7463 18.1256 78.8766 15.2531 80.3181 12.7138C81.7596 10.1744 83.4529 8.03868 85.398 6.30646C87.3432 4.57425 89.4167 3.33222 91.6187 2.58037C91.7917 2.56579 92.1198 2.58172 92.6029 2.62816C93.086 2.67459 93.562 2.76519 94.0307 2.89996C94.4995 3.03474 94.8728 3.19934 95.1505 3.39376C95.4283 3.58819 95.4483 3.82611 95.2107 4.10753ZM103.243 0.163499C103.297 0.28963 103.387 0.837532 103.512 1.8072C103.637 2.77688 103.774 4.01782 103.923 5.53005C104.073 7.04227 104.228 8.76088 104.39 10.6859C104.553 12.6109 104.73 14.589 104.923 16.6204C105.116 18.6517 105.296 20.6623 105.464 22.6522C105.631 24.6421 105.785 26.4698 105.926 28.1352C106.066 29.8007 106.184 31.2066 106.281 32.3529C106.378 33.4993 106.442 34.2671 106.475 34.6564C106.772 32.4967 107.306 30.6873 108.076 29.2283C108.846 27.7694 109.595 26.9656 110.324 26.8172C111.174 26.5713 111.849 26.6995 112.349 27.202C112.849 27.7045 113.278 28.4089 113.638 29.3153C113.997 30.2216 114.366 31.2362 114.744 32.3588C115.122 33.4815 115.592 34.5419 116.155 35.54C116.719 36.5381 117.445 37.4027 118.334 38.1337C119.223 38.8648 120.389 39.2567 121.831 39.3095C120.787 40.3559 119.817 40.8732 118.923 40.8614C118.029 40.8496 117.207 40.5268 116.457 39.8929C115.706 39.2591 115.026 38.4233 114.416 37.3856C113.806 36.3479 113.284 35.3245 112.85 34.3154C112.417 33.3064 112.059 32.4216 111.777 31.6612C111.495 30.9008 111.306 30.4593 111.208 30.3368C110.919 30.0126 110.636 30.0147 110.359 30.343C110.082 30.6713 109.808 31.1736 109.539 31.8498C109.269 32.526 109.029 33.2977 108.819 34.1649C108.609 35.0321 108.427 35.8534 108.275 36.6286C108.122 37.4039 108.003 38.0565 107.917 38.5865C107.831 39.1166 107.786 39.36 107.783 39.3167C107.7 39.89 107.654 40.6345 107.644 41.5502C107.634 42.4659 107.656 43.3681 107.709 44.2567C107.762 45.1453 107.829 45.9456 107.911 46.6576C107.993 47.3695 108.084 47.8083 108.185 47.9741C107.882 47.9996 107.442 47.9387 106.863 47.7914C106.284 47.6441 105.843 47.5832 105.541 47.6087C105.431 46.311 105.288 44.6131 105.111 42.5151C104.935 40.417 104.738 38.0811 104.521 35.5072C104.304 32.9333 104.061 30.1765 103.792 27.2367C103.522 24.297 103.228 21.3266 102.91 18.3256C102.592 15.3246 102.265 12.3462 101.929 9.39024C101.593 6.43433 101.227 3.64427 100.832 1.02008C100.824 0.933567 101.07 0.749483 101.569 0.467834C102.068 0.186184 102.626 0.0847399 103.243 0.163499ZM120.569 25.1046C120.493 24.7189 120.69 24.6042 121.161 24.7606C121.632 24.917 122.114 25.0833 122.608 25.2595C122.865 26.2399 123.061 27.0184 123.197 27.5951C123.333 28.1718 123.444 28.7179 123.531 29.2334C123.618 29.7488 123.708 30.3076 123.803 30.9095C123.897 31.5115 124.029 32.3063 124.2 33.294C124.505 32.2662 124.904 31.3069 125.395 30.416C125.886 29.5251 126.55 28.7395 127.385 28.0592C128.221 27.3788 129.244 26.8462 130.453 26.4611C131.662 26.0761 133.135 25.854 134.873 25.7947C134.902 26.1408 134.807 26.4428 134.59 26.7008C134.372 26.9587 133.836 27.189 132.982 27.3917C131.745 27.7137 130.689 28.2274 129.811 28.933C128.934 29.6386 128.195 30.4306 127.594 31.309C126.993 32.1874 126.526 33.1089 126.193 34.0736C125.86 35.0383 125.597 35.9209 125.403 36.7214C125.393 37.1144 125.385 37.6705 125.38 38.3897C125.376 39.1089 125.396 39.8696 125.442 40.6717C125.488 41.4738 125.532 42.2543 125.574 43.0131C125.616 43.772 125.699 44.364 125.821 44.7893C125.883 45.002 125.799 45.1724 125.57 45.3006C125.342 45.4288 125.078 45.5272 124.779 45.596C124.479 45.6648 124.196 45.6668 123.93 45.6022C123.663 45.5375 123.52 45.3971 123.502 45.1808C123.213 40.7179 122.771 36.8887 122.175 33.6933C121.579 30.4978 121.044 27.6349 120.569 25.1046ZM137.41 15.5827C137.836 15.4597 138.117 15.6974 138.255 16.2957C138.392 16.8941 138.344 17.3556 138.11 17.6802C137.667 18.1096 137.392 18.4704 137.286 18.7625C137.18 19.0546 136.893 19.264 136.424 19.3906C136.161 19.3692 135.933 19.3775 135.74 19.4155C135.547 19.4536 135.355 19.1103 135.163 18.3859C135.296 17.8955 135.527 17.3968 135.854 16.89C136.182 16.3832 136.701 15.9474 137.41 15.5827ZM138.316 24.0017C138.707 26.0598 139.05 28.329 139.347 30.8091C139.643 33.2891 140.014 35.8827 140.459 38.5898C140.749 39.9595 141.013 41.0263 141.252 41.7904C141.49 42.5545 141.682 43.279 141.827 43.9638C141.146 44.1519 140.604 44.1866 140.202 44.068C139.8 43.9494 139.417 43.7965 139.053 43.6094C138.908 42.9245 138.714 41.7864 138.471 40.1949C138.228 38.6035 137.973 36.8714 137.706 34.9988C137.44 33.1262 137.178 31.3076 136.92 29.5431C136.663 27.7786 136.447 26.3809 136.273 25.35C136.439 25.2489 136.568 25.1073 136.662 24.9252C136.755 24.743 136.862 24.5816 136.98 24.4409C137.099 24.3002 137.263 24.1775 137.472 24.0727C137.681 23.968 137.962 23.9443 138.316 24.0017ZM150.422 22.6551C151.518 22.737 152.435 22.8993 153.175 23.142C153.914 23.3847 154.505 23.6726 154.946 24.0057C155.388 24.3387 155.745 24.6899 156.015 25.0592C156.286 25.4285 156.544 25.7771 156.79 26.1049C156.761 26.2816 156.554 26.2773 156.168 26.0919C155.782 25.9066 155.407 25.7204 155.042 25.5333C154.04 25.0078 152.862 24.7367 151.511 24.7199C150.159 24.703 148.921 24.8835 147.799 25.2613C146.676 25.639 145.798 26.2031 145.164 26.9535C144.53 27.704 144.428 28.5621 144.858 29.5279C145.288 30.4937 145.977 31.3069 146.926 31.9676C147.875 32.6283 148.915 33.2051 150.045 33.698C151.176 34.1909 152.302 34.6297 153.423 35.0144C154.545 35.3992 155.472 35.8003 156.204 36.2179C157.029 35.6691 157.731 35.207 158.309 34.8316C158.887 34.4561 159.402 34.1078 159.854 33.7865C160.307 33.4652 160.771 33.1647 161.249 32.8849C161.726 32.6051 162.277 32.2864 162.9 31.9289C162.983 31.8784 163.057 31.8504 163.122 31.8449C163.186 31.8394 163.191 31.8935 163.135 32.0071C163.079 32.1207 162.921 32.3084 162.66 32.57C162.399 32.8316 161.984 33.2042 161.414 33.6878C161.13 33.9296 160.598 34.3446 159.82 34.933C159.042 35.5213 158.203 36.1584 157.302 36.8442C157.861 37.2763 158.314 37.7391 158.661 38.2327C158.96 38.6867 159.187 39.1795 159.341 39.7111C159.494 40.2427 159.444 40.8025 159.188 41.3904C158.44 42.8475 157.557 44.011 156.542 44.8807C155.526 45.7505 154.576 46.375 153.694 46.7543C153.106 47.0216 152.437 47.0998 151.688 46.9887C150.938 46.8776 150.324 46.5807 149.848 46.0981C149.314 45.446 149.136 44.7531 149.314 44.0193C149.491 43.2855 149.833 42.5596 150.339 41.8417C150.845 41.1239 151.44 40.4311 152.124 39.7636C152.809 39.096 153.412 38.5006 153.934 37.9774C153.509 37.5776 152.707 37.1115 151.529 36.579C150.352 36.0465 149.136 35.4518 147.883 34.795C146.63 34.1382 145.491 33.4173 144.466 32.6323C143.442 31.8473 142.85 31.0258 142.69 30.1679C142.437 29.2308 142.479 28.3016 142.815 27.3801C143.151 26.4587 143.691 25.6291 144.435 24.8911C145.179 24.1532 146.067 23.5774 147.099 23.1637C148.132 22.75 149.239 22.5804 150.422 22.6551ZM151.713 44.9608C152.207 45.137 152.748 45.0914 153.335 44.8241C153.922 44.5568 154.469 44.1949 154.975 43.7384C155.481 43.2819 155.919 42.7876 156.288 42.2555C156.657 41.7234 156.89 41.2572 156.987 40.857C157.087 40.5 156.937 40.1315 156.534 39.7515C156.132 39.3715 155.725 39.0682 155.314 38.8414C154.867 39.2275 154.364 39.7165 153.804 40.3082C153.244 40.9 152.76 41.4962 152.354 42.0968C151.947 42.6974 151.657 43.2664 151.485 43.8037C151.312 44.341 151.388 44.7267 151.713 44.9608ZM168.942 22.2058C170.791 21.9194 172.607 21.6248 174.389 21.3222C176.172 21.0196 178.029 20.6997 179.961 20.3627C180.397 20.3696 180.697 20.573 180.862 20.973C181.026 21.373 180.874 21.6363 180.406 21.7629C178.82 22.0708 177.001 22.4636 174.95 22.9413C172.9 23.419 170.964 23.9741 169.144 24.6067C169.344 25.9404 169.503 27.3102 169.621 28.7161C169.74 30.122 169.889 31.5036 170.068 32.8607C170.248 34.2179 170.489 35.5264 170.791 36.7861C171.093 38.0458 171.506 39.1982 172.03 40.2432C172.697 40.9276 173.339 41.3092 173.956 41.3879C174.573 41.4667 175.143 41.3859 175.667 41.1457C176.192 40.9055 176.663 40.5608 177.083 40.1116C177.503 39.6624 177.869 39.2285 178.182 38.81C178.46 38.4817 178.708 38.4608 178.928 38.7472C179.149 39.0336 179.003 39.5033 178.492 40.1563C178.258 40.481 177.961 40.8327 177.6 41.2116C177.24 41.5905 176.8 41.9216 176.279 42.2051C175.759 42.4886 175.166 42.691 174.501 42.8124C173.836 42.9337 173.105 42.9191 172.308 42.7684C171.291 42.5926 170.488 41.8543 169.9 40.5534C169.311 39.2524 168.822 37.7144 168.433 35.9392C168.044 34.164 167.724 32.3067 167.473 30.3674C167.223 28.4281 166.967 26.6852 166.706 25.1388C164.817 25.4722 163.435 25.7411 162.559 25.9456C161.683 26.1501 161.053 26.2903 160.667 26.3664C160.281 26.4425 160.02 26.4427 159.883 26.3671C159.746 26.2915 159.492 26.1169 159.12 25.8432C159.145 25.6233 159.138 25.4169 159.1 25.2241C159.062 25.0312 159.049 24.869 159.059 24.7374C159.07 24.6058 159.146 24.4688 159.286 24.3262C159.427 24.1837 159.71 24.051 160.135 23.928C160.769 23.7003 161.702 23.5237 162.933 23.3982C164.164 23.2727 165.356 23.0743 166.509 22.8029C166.349 21.4222 166.215 20.3444 166.106 19.5694C165.997 18.7944 165.897 18.1167 165.804 17.5364C165.712 16.956 165.631 16.3856 165.562 15.8251C165.493 15.2645 165.42 14.53 165.344 13.6216C165.326 13.4053 165.431 13.2331 165.66 13.1049C165.888 12.9767 166.153 12.889 166.454 12.8419C166.755 12.7948 167.04 12.8143 167.309 12.9006C167.577 12.9869 167.764 13.1346 167.869 13.3436C168.031 13.722 168.166 14.2878 168.273 15.0412C168.38 15.7946 168.48 16.5921 168.573 17.4339C168.665 18.2756 168.748 19.129 168.821 19.9942C168.894 20.8594 168.934 21.5966 168.942 22.2058ZM182.715 22.0258C182.841 21.9716 183.199 21.8217 183.788 21.576C184.377 21.3303 184.872 21.256 185.272 21.353C186.523 21.204 187.513 21.4474 188.241 22.0831C188.97 22.7187 189.137 24.0552 188.742 26.0924C188.106 28.3678 187.169 30.2983 185.93 31.8839C184.692 33.4695 183.199 35.0111 181.452 36.5088C181.979 37.5971 182.681 38.1697 183.557 38.2266C184.433 38.2835 185.329 38.0664 186.246 37.5753C187.164 37.0841 188.047 36.4542 188.897 35.6856C189.747 34.9169 190.432 34.2494 190.95 33.6829C191.793 32.8277 192.462 32.107 192.957 31.5207C193.452 30.9344 193.97 30.2264 194.51 29.3968C194.632 29.2993 194.709 29.3038 194.74 29.4101C194.77 29.5164 194.773 29.6795 194.748 29.8995C194.723 30.1194 194.684 30.4277 194.63 30.8243C194.526 31.138 194.419 31.4193 194.309 31.6682C194.199 31.917 194.037 32.1921 193.823 32.4933C193.609 32.7945 193.324 33.1562 192.967 33.5783C192.611 34.0004 192.178 34.5596 191.671 35.2559C191.073 35.9162 190.496 36.5638 189.939 37.1988C189.383 37.8338 188.788 38.3958 188.154 38.8849C187.52 39.374 186.81 39.7387 186.024 39.9792C185.239 40.2196 184.319 40.2971 183.267 40.2115C182.376 39.9816 181.657 39.7154 181.108 39.4131C180.56 39.1107 180.13 38.7876 179.818 38.4436C179.506 38.0995 179.272 37.7816 179.117 37.4897C178.961 37.1978 178.853 36.9456 178.791 36.7329C178.502 35.886 178.317 34.7253 178.237 33.2509C178.156 31.7764 178.428 29.8366 179.053 27.4314C179.514 26.1728 180.033 25.0944 180.611 24.1962C181.188 23.298 181.89 22.5746 182.715 22.0258ZM180.827 33.7515C181.364 33.4013 181.988 32.9239 182.7 32.3194C183.411 31.7149 184.072 31.0276 184.682 30.2573C185.293 29.4871 185.81 28.6484 186.235 27.7413C186.659 26.8343 186.853 25.9031 186.816 24.9477C186.891 24.2879 186.832 23.8355 186.637 23.5905C186.539 23.4681 186.447 23.4105 186.361 23.4178C185.596 23.1336 184.87 23.3037 184.182 23.928C183.494 24.5523 182.891 25.4091 182.373 26.4983C181.855 27.5875 181.444 28.7875 181.14 30.0983C180.837 31.409 180.733 32.6267 180.827 33.7515ZM196.026 19.4668C196.128 20.6781 196.219 21.8902 196.299 23.1033C196.38 24.3164 196.457 25.4862 196.53 26.6127C196.603 27.7392 196.671 28.8009 196.733 29.7977C196.795 30.7944 196.837 31.684 196.859 32.4662C196.845 32.2932 196.907 31.8632 197.045 31.1763C197.183 30.4894 197.389 29.6988 197.662 28.8045C197.935 27.9102 198.236 26.9591 198.565 25.9511C198.894 24.9432 199.265 24.0407 199.677 23.2436C200.089 22.4465 200.525 21.8107 200.986 21.3362C201.447 20.8617 201.901 20.6927 202.348 20.8293C203.336 21.1817 204.06 21.7525 204.518 22.5416C204.977 23.3307 205.337 24.2479 205.6 25.2932C205.862 26.3384 206.134 27.5027 206.417 28.7858C206.699 30.069 207.203 31.3988 207.929 32.7754C208.243 33.4024 208.662 33.8463 209.185 34.1072C209.708 34.3681 210.202 34.5443 210.667 34.6359C211.132 34.7274 211.506 34.7721 211.789 34.77C212.072 34.768 212.176 34.8355 212.1 34.9726C211.088 35.8856 210.182 36.2451 209.381 36.0511C208.581 35.8572 207.873 35.3396 207.257 34.4983C206.642 33.6571 206.109 32.6346 205.659 31.4309C205.209 30.2272 204.796 29.064 204.418 27.9413C204.04 26.8186 203.709 25.8663 203.426 25.0842C203.142 24.3022 202.87 23.9221 202.611 23.9439C202.225 24.02 201.834 24.4232 201.438 25.1536C201.043 25.884 200.65 26.7883 200.262 27.8666C199.874 28.9449 199.515 30.1187 199.186 31.388C198.858 32.6573 198.555 33.8482 198.279 34.9606C198.002 36.0731 197.788 37.0277 197.638 37.8246C197.487 38.6215 197.397 39.1082 197.369 39.2849C196.72 39.3396 196.321 39.3949 196.174 39.4509C196.026 39.5069 195.759 39.3116 195.373 38.8649C195.268 35.0399 195.041 31.4323 194.69 28.042C194.339 24.6517 193.993 21.7075 193.652 19.2094C193.619 18.8201 193.7 18.6172 193.894 18.6008C194.089 18.5844 194.313 18.6527 194.565 18.8057C194.818 18.9587 195.081 19.1108 195.355 19.262C195.629 19.4131 195.853 19.4814 196.026 19.4668ZM217.189 17.0306C218.285 17.1125 219.202 17.2748 219.941 17.5175C220.681 17.7602 221.271 18.0481 221.713 18.3812C222.155 18.7142 222.511 19.0654 222.782 19.4347C223.053 19.804 223.311 20.1526 223.556 20.4804C223.528 20.6571 223.32 20.6528 222.934 20.4674C222.549 20.2821 222.173 20.0959 221.809 19.9088C220.806 19.3833 219.629 19.1122 218.277 19.0954C216.925 19.0786 215.688 19.259 214.566 19.6368C213.443 20.0145 212.565 20.5786 211.931 21.329C211.297 22.0795 211.195 22.9376 211.625 23.9034C212.055 24.8692 212.744 25.6824 213.693 26.3431C214.642 27.0038 215.681 27.5806 216.812 28.0735C217.943 28.5664 219.069 29.0052 220.19 29.3899C221.312 29.7747 222.238 30.1758 222.971 30.5934C223.796 30.0446 224.497 29.5825 225.076 29.2071C225.654 28.8316 226.169 28.4833 226.621 28.162C227.073 27.8408 227.538 27.5402 228.015 27.2604C228.493 26.9806 229.043 26.6619 229.667 26.3044C229.75 26.2539 229.823 26.2259 229.888 26.2204C229.953 26.215 229.958 26.269 229.902 26.3826C229.846 26.4962 229.688 26.6839 229.427 26.9455C229.165 27.2071 228.75 27.5797 228.181 28.0633C227.897 28.3051 227.365 28.7202 226.587 29.3085C225.809 29.8968 224.97 30.5339 224.069 31.2197C224.628 31.6518 225.081 32.1146 225.427 32.6082C225.727 33.0622 225.954 33.555 226.107 34.0866C226.261 34.6183 226.21 35.178 225.955 35.7659C225.206 37.223 224.324 38.3865 223.308 39.2562C222.292 40.126 221.343 40.7505 220.46 41.1298C219.873 41.3972 219.204 41.4753 218.454 41.3642C217.704 41.2531 217.091 40.9562 216.615 40.4736C216.081 39.8215 215.903 39.1286 216.08 38.3948C216.258 37.661 216.6 36.9351 217.106 36.2172C217.612 35.4994 218.207 34.8066 218.891 34.1391C219.576 33.4715 220.179 32.8761 220.701 32.3529C220.275 31.9531 219.474 31.487 218.296 30.9545C217.119 30.422 215.903 29.8273 214.65 29.1705C213.397 28.5137 212.258 27.7928 211.233 27.0078C210.209 26.2228 209.617 25.4013 209.457 24.5434C209.204 23.6063 209.246 22.6771 209.582 21.7557C209.918 20.8342 210.458 20.0046 211.202 19.2667C211.946 18.5287 212.834 17.9529 213.866 17.5392C214.899 17.1255 216.006 16.9559 217.189 17.0306ZM218.479 39.3363C218.974 39.5125 219.514 39.4669 220.102 39.1996C220.689 38.9323 221.236 38.5704 221.742 38.1139C222.248 37.6574 222.685 37.1631 223.054 36.631C223.424 36.0989 223.657 35.6327 223.754 35.2325C223.854 34.8755 223.703 34.507 223.301 34.127C222.899 33.747 222.492 33.4437 222.081 33.2169C221.634 33.6031 221.131 34.092 220.571 34.6838C220.011 35.2755 219.527 35.8717 219.12 36.4723C218.714 37.0729 218.424 37.6419 218.251 38.1792C218.079 38.7165 218.155 39.1022 218.479 39.3363ZM233.325 17.7624C233.451 17.7082 233.809 17.5582 234.398 17.3126C234.987 17.0669 235.482 16.9925 235.882 17.0895C237.133 16.9406 238.123 17.1839 238.852 17.8196C239.581 18.4552 239.748 19.7917 239.353 21.829C238.717 24.1044 237.779 26.0349 236.541 27.6205C235.302 29.206 233.809 30.7477 232.062 32.2454C232.589 33.3336 233.291 33.9062 234.167 33.9631C235.043 34.02 235.94 33.8029 236.857 33.3118C237.774 32.8207 238.657 32.1908 239.508 31.4221C240.358 30.6535 241.042 29.9859 241.561 29.4194C242.403 28.5642 243.072 27.8435 243.567 27.2572C244.063 26.671 244.58 25.963 245.12 25.1333C245.243 25.0359 245.319 25.0403 245.35 25.1466C245.381 25.2529 245.384 25.4161 245.359 25.636C245.334 25.8559 245.294 26.1642 245.24 26.5608C245.136 26.8746 245.029 27.1559 244.919 27.4047C244.81 27.6536 244.648 27.9286 244.434 28.2298C244.219 28.5311 243.934 28.8927 243.577 29.3149C243.221 29.737 242.789 30.2962 242.281 30.9924C241.683 31.6527 241.106 32.3003 240.55 32.9353C239.993 33.5703 239.398 34.1324 238.764 34.6214C238.13 35.1105 237.42 35.4753 236.635 35.7157C235.849 35.9562 234.93 36.0336 233.877 35.948C232.986 35.7181 232.267 35.452 231.719 35.1496C231.17 34.8473 230.74 34.5241 230.428 34.1801C230.116 33.8361 229.882 33.5181 229.727 33.2263C229.572 32.9344 229.463 32.6821 229.402 32.4695C229.113 31.6225 228.928 30.4618 228.847 28.9874C228.766 27.513 229.039 25.5732 229.664 23.168C230.124 21.9094 230.643 20.831 231.221 19.9328C231.799 19.0346 232.5 18.3111 233.325 17.7624ZM231.438 29.488C231.975 29.1378 232.599 28.6605 233.31 28.056C234.022 27.4515 234.683 26.7641 235.293 25.9939C235.903 25.2236 236.421 24.3849 236.845 23.4779C237.27 22.5708 237.464 21.6396 237.427 20.6843C237.502 20.0245 237.442 19.5721 237.247 19.3271C237.15 19.2046 237.058 19.147 236.971 19.1543C236.207 18.8702 235.48 19.0403 234.792 19.6646C234.104 20.2889 233.501 21.1456 232.983 22.2349C232.465 23.3241 232.054 24.5241 231.751 25.8348C231.447 27.1455 231.343 28.3633 231.438 29.488ZM246.636 15.2034C246.738 16.4146 246.829 17.6268 246.91 18.8398C246.99 20.0529 247.067 21.2227 247.14 22.3492C247.213 23.4758 247.281 24.5374 247.343 25.5342C247.405 26.531 247.447 27.4205 247.47 28.2028C247.455 28.0297 247.517 27.5998 247.655 26.9129C247.793 26.226 247.999 25.4354 248.272 24.541C248.545 23.6467 248.846 22.6956 249.175 21.6877C249.504 20.6797 249.875 19.7772 250.287 18.9801C250.699 18.183 251.135 17.5472 251.597 17.0727C252.058 16.5982 252.512 16.4293 252.959 16.5659C253.947 16.9183 254.67 17.489 255.129 18.2782C255.587 19.0673 255.948 19.9845 256.21 21.0297C256.472 22.075 256.745 23.2392 257.027 24.5224C257.309 25.8055 257.813 27.1354 258.539 28.5119C258.853 29.1389 259.272 29.5829 259.795 29.8438C260.318 30.1047 260.812 30.2809 261.277 30.3724C261.742 30.4639 262.116 30.5086 262.399 30.5066C262.682 30.5045 262.786 30.572 262.71 30.7091C261.698 31.6221 260.792 31.9816 259.991 31.7877C259.191 31.5937 258.483 31.0761 257.868 30.2349C257.252 29.3936 256.72 28.3711 256.27 27.1674C255.82 25.9637 255.406 24.8005 255.028 23.6778C254.65 22.5552 254.32 21.6028 254.036 20.8208C253.752 20.0387 253.481 19.6586 253.221 19.6805C252.835 19.7565 252.445 20.1597 252.049 20.8901C251.653 21.6205 251.261 22.5249 250.872 23.6032C250.484 24.6815 250.126 25.8552 249.797 27.1246C249.468 28.3939 249.165 29.5847 248.889 30.6972C248.612 31.8096 248.399 32.7643 248.248 33.5611C248.097 34.358 248.008 34.8448 247.979 35.0215C247.33 35.0761 246.932 35.1315 246.784 35.1875C246.636 35.2435 246.369 35.0481 245.983 34.6014C245.879 30.7765 245.651 27.1688 245.3 23.7785C244.949 20.3882 244.603 17.444 244.262 14.9459C244.229 14.5566 244.31 14.3538 244.505 14.3374C244.699 14.321 244.923 14.3893 245.176 14.5422C245.428 14.6952 245.691 14.8473 245.965 14.9985C246.24 15.1497 246.463 15.218 246.636 15.2034Z" fill="white"/>
</svg>
