<svg xmlns="http://www.w3.org/2000/svg" width="259.57mm" height="45.62mm" viewBox="0 0 735.8 129.3"><polygon points="56.55 28.22 62.42 0 9.27 0 3.38 28.22 19.05 28.22 0 129.3 21.92 129.3 40.97 28.22 56.55 28.22" fill="#ef3936"/><polygon points="419.11 0 413.23 28.22 428.89 28.22 409.85 129.3 431.77 129.3 450.82 28.22 466.39 28.22 472.27 0 419.11 0" fill="#ef3936"/><polygon points="101.72 0 92.53 43.64 81.94 43.64 89.65 0 67.22 0 40.01 129.3 63.9 129.3 75 77.22 85.46 77.22 74.5 129.3 96.46 129.3 123.68 0 101.72 0" fill="#ef3936"/><path d="M181.48,52.71l6.78-32L179.69,3.66H134.35L107.13,133h24l11.09-52.08h9.23L140.58,133h23.9L175.6,80.48,168.65,67Zm-24.14.51h-9.46l4.79-22.45h9.42Z" transform="translate(-0.67 -3.66)" fill="#ef3936"/><path d="M247.57,3.66H212.63L198.72,19.35l-19.51,96.73L187.66,133H222l14.91-16.88L256,20.72Zm-31.44,102.9-11.66.06,14.92-77.11L231,29.45Z" transform="translate(-0.67 -3.66)" fill="#ef3936"/><polygon points="342.48 0 319.15 83.15 328.29 0 299.81 0 274.42 83.51 284.82 0 263.41 0 250.44 129.3 280.22 129.3 304.72 46.51 296.19 129.3 327.01 129.3 365.72 0 342.48 0" fill="#ef3936"/><polygon points="391.72 0 364.5 129.3 388.53 129.3 415.75 0 391.72 0" fill="#ef3936"/><path d="M543.09,3.66H496.74L470.53,133h46.19l16.1-17.24,18.59-95.18Zm-33,102.26h-11l15.55-76.58h10.89Z" transform="translate(-0.67 -3.66)" fill="#ef3936"/><polygon points="595.3 76.78 600.79 49.09 577.66 48.83 582.01 27.69 607.71 27.69 613.6 0 563.99 0 538.61 129.3 588.04 129.3 594.41 100.59 567.06 100.59 571.93 76.78 595.3 76.78" fill="#ef3936"/><polygon points="631.33 76.78 654.7 76.78 660.19 49.09 637.05 48.83 641.4 27.69 667.1 27.69 672.99 0 623.38 0 598 129.3 647.43 129.3 653.8 100.59 626.46 100.59 631.33 76.78" fill="#ef3936"/><path d="M727.59,3.76H682.38L655.16,132.85h24l8.58-41.73h22.38l14.76-15.61,11.55-56.07ZM704.27,63.6H692.8l6.61-33.7h11.47Z" transform="translate(-0.67 -3.66)" fill="#ef3936"/></svg>